<svg id="visual" viewBox="0 0 900 100" width="900" height="100" xmlns="http://www.w3.org/2000/svg" xmlns:xlink="http://www.w3.org/1999/xlink" version="1.1"><rect x="0" y="0" width="900" height="100" fill="#F7770F"></rect><defs><linearGradient id="grad1_0" x1="88.9%" y1="0%" x2="100%" y2="100%"><stop offset="-130%" stop-color="#fbae3c" stop-opacity="1"></stop><stop offset="230%" stop-color="#fbae3c" stop-opacity="1"></stop></linearGradient></defs><defs><linearGradient id="grad1_1" x1="88.9%" y1="0%" x2="100%" y2="100%"><stop offset="-130%" stop-color="#fbae3c" stop-opacity="1"></stop><stop offset="230%" stop-color="#f99424" stop-opacity="1"></stop></linearGradient></defs><defs><linearGradient id="grad1_2" x1="88.9%" y1="0%" x2="100%" y2="100%"><stop offset="-130%" stop-color="#f7770f" stop-opacity="1"></stop><stop offset="230%" stop-color="#f99424" stop-opacity="1"></stop></linearGradient></defs><defs><linearGradient id="grad2_0" x1="0%" y1="0%" x2="11.1%" y2="100%"><stop offset="-130%" stop-color="#fbae3c" stop-opacity="1"></stop><stop offset="230%" stop-color="#fbae3c" stop-opacity="1"></stop></linearGradient></defs><defs><linearGradient id="grad2_1" x1="0%" y1="0%" x2="11.1%" y2="100%"><stop offset="-130%" stop-color="#f99424" stop-opacity="1"></stop><stop offset="230%" stop-color="#fbae3c" stop-opacity="1"></stop></linearGradient></defs><defs><linearGradient id="grad2_2" x1="0%" y1="0%" x2="11.1%" y2="100%"><stop offset="-130%" stop-color="#f99424" stop-opacity="1"></stop><stop offset="230%" stop-color="#f7770f" stop-opacity="1"></stop></linearGradient></defs><g transform="translate(900, 0)"><path d="M0 85C-11.3 91.3 -22.6 97.5 -30.6 94.2C-38.5 90.8 -43.1 77.7 -51.7 71.2C-60.3 64.7 -73 64.8 -80.9 58.8C-88.8 52.8 -91.9 40.8 -92.3 30C-92.6 19.2 -90.3 9.6 -88 0L0 0Z" fill="#f88619"></path><path d="M0 56.7C-7.5 60.8 -15.1 65 -20.4 62.8C-25.7 60.5 -28.7 51.8 -34.5 47.5C-40.2 43.1 -48.7 43.2 -53.9 39.2C-59.2 35.2 -61.2 27.2 -61.5 20C-61.8 12.8 -60.2 6.4 -58.7 0L0 0Z" fill="#faa130"></path><path d="M0 28.3C-3.8 30.4 -7.5 32.5 -10.2 31.4C-12.8 30.3 -14.4 25.9 -17.2 23.7C-20.1 21.6 -24.3 21.6 -27 19.6C-29.6 17.6 -30.6 13.6 -30.8 10C-30.9 6.4 -30.1 3.2 -29.3 0L0 0Z" fill="#fbae3c"></path></g><g transform="translate(0, 100)"><path d="M0 -100C10 -96.5 20 -93.1 28.7 -88.4C37.5 -83.8 45.1 -78.1 52.3 -72C59.5 -65.9 66.3 -59.6 72 -52.3C77.7 -45.1 82.4 -37 86.5 -28.1C90.7 -19.3 94.4 -9.6 98 0L0 0Z" fill="#f88619"></path><path d="M0 -66.7C6.7 -64.4 13.3 -62 19.2 -59C25 -55.9 30.1 -52 34.9 -48C39.7 -44 44.2 -39.7 48 -34.9C51.8 -30.1 54.9 -24.7 57.7 -18.7C60.5 -12.8 62.9 -6.4 65.3 0L0 0Z" fill="#faa130"></path><path d="M0 -33.3C3.3 -32.2 6.7 -31 9.6 -29.5C12.5 -27.9 15 -26 17.4 -24C19.8 -22 22.1 -19.9 24 -17.4C25.9 -15 27.5 -12.3 28.8 -9.4C30.2 -6.4 31.5 -3.2 32.7 0L0 0Z" fill="#fbae3c"></path></g></svg>