<svg id="visual" viewBox="0 0 1920 100" width="1920" height="100" xmlns="http://www.w3.org/2000/svg" xmlns:xlink="http://www.w3.org/1999/xlink" version="1.1"><rect x="0" y="0" width="1920" height="100" fill="#F7770F"></rect><g fill="#FFB703"><circle r="50" cx="775" cy="26"></circle><circle r="10" cx="404" cy="76"></circle><circle r="15" cx="1115" cy="25"></circle><circle r="31" cx="1845" cy="98"></circle><circle r="47" cx="621" cy="17"></circle><circle r="14" cx="72" cy="50"></circle><circle r="27" cx="1281" cy="19"></circle><circle r="29" cx="259" cy="64"></circle><circle r="33" cx="971" cy="81"></circle><circle r="39" cx="1526" cy="73"></circle><circle r="36" cx="1628" cy="16"></circle><circle r="46" cx="1426" cy="41"></circle><circle r="42" cx="484" cy="2"></circle><circle r="46" cx="1701" cy="92"></circle><circle r="18" cx="1783" cy="12"></circle><circle r="29" cx="162" cy="3"></circle><circle r="33" cx="869" cy="60"></circle><circle r="9" cx="544" cy="91"></circle><circle r="40" cx="1195" cy="95"></circle><circle r="45" cx="1911" cy="4"></circle></g></svg>